<svg id="pause-button" width="69" height="70" viewBox="0 0 69 70" fill="none" xmlns="http://www.w3.org/2000/svg">
<path fill-rule="evenodd" clip-rule="evenodd" d="M34 50C46.7025 50 57 39.7025 57 27C57 14.2975 46.7025 4 34 4C21.2975 4 11 14.2975 11 27C11 39.7025 21.2975 50 34 50Z" fill="#F9F5F2"/>
<g filter="url(#filter0_d_2998_9264)">
<path fill-rule="evenodd" clip-rule="evenodd" d="M256,0C114.617,0,0,114.615,0,256s114.617,256,256,256s256-114.615,256-256S397.383,0,256,0z M224,320
	c0,8.836-7.164,16-16,16h-32c-8.836,0-16-7.164-16-16V192c0-8.836,7.164-16,16-16h32c8.836,0,16,7.164,16,16V320z M352,320
	c0,8.836-7.164,16-16,16h-32c-8.836,0-16-7.164-16-16V192c0-8.836,7.164-16,16-16h32c8.836,0,16,7.164,16,16V320z" fill="#42676B"/>
</g>
<defs>
<filter id="filter0_d_2998_9264" x="0.400024" y="0.824951" width="67.775" height="68.925" filterUnits="userSpaceOnUse" color-interpolation-filters="sRGB">
<feFlood flood-opacity="0" result="BackgroundImageFix"/>
<feColorMatrix in="SourceAlpha" type="matrix" values="0 0 0 0 0 0 0 0 0 0 0 0 0 0 0 0 0 0 127 0" result="hardAlpha"/>
<feOffset dy="8"/>
<feGaussianBlur stdDeviation="14.5"/>
<feColorMatrix type="matrix" values="0 0 0 0 0.819608 0 0 0 0 0.819608 0 0 0 0 0.819608 0 0 0 0.398466 0"/>
<feBlend mode="normal" in2="BackgroundImageFix" result="effect1_dropShadow_2998_9264"/>
<feBlend mode="normal" in="SourceGraphic" in2="effect1_dropShadow_2998_9264" result="shape"/>
</filter>
</defs>
</svg>

