<svg id="skip-left" width="26" height="29" viewBox="0 0 26 29" fill="none" xmlns="http://www.w3.org/2000/svg">
<path d="M10.817 20V12.586H9.959C9.816 13.488 9.31 13.829 8.155 13.829V14.599H9.816V20H10.817ZM15.7678 12.432C14.0298 12.432 13.0838 13.796 13.0838 16.293C13.0838 18.79 14.0298 20.154 15.7678 20.154C17.5058 20.154 18.4518 18.79 18.4518 16.293C18.4518 13.796 17.5058 12.432 15.7678 12.432ZM15.7678 13.323C16.8348 13.323 17.4068 14.357 17.4068 16.293C17.4068 18.24 16.8348 19.285 15.7678 19.285C14.7118 19.285 14.1398 18.24 14.1398 16.293C14.1398 14.357 14.7118 13.323 15.7678 13.323Z" fill="#C4C4C4"/>
<path fill-rule="evenodd" clip-rule="evenodd" d="M13 0L6 3.5L13 7V4C19.6274 4 25 9.37258 25 16C25 22.6274 19.6274 28 13 28C6.70934 28 1.54922 23.1595 1.04107 17H0C0.510625 23.7124 6.11888 29 12.9621 29C20.1418 29 25.9621 23.1797 25.9621 16C25.9621 8.83293 20.1623 3.02049 13 3.00005V0Z" fill="#C4C4C4"/>
</svg>
