<svg id="volume" width="19" height="15" viewBox="0 0 19 15" fill="none" xmlns="http://www.w3.org/2000/svg">
<path fill-rule="evenodd" clip-rule="evenodd" d="M4.66667 4H0V7.5V11H4.66667L10 15V0L4.66667 4Z" fill="#C4C4C4"/>
<path d="M16.209 14C16.0948 14 15.9805 13.9479 15.8989 13.8611C15.7357 13.6874 15.7357 13.3921 15.8989 13.2184C17.3352 11.69 18.135 9.65798 18.135 7.48697C18.135 5.33333 17.3515 3.31864 15.9315 1.79025C15.7683 1.61657 15.7683 1.32131 15.9315 1.13026C16.0948 0.95658 16.3722 0.95658 16.5354 1.13026C18.1186 2.83233 19 5.09018 19 7.48697C19 9.90114 18.1186 12.159 16.5028 13.8611C16.4212 13.9479 16.3069 14 16.209 14ZM14.6095 11.8464C15.7194 10.6827 16.3233 9.13694 16.3233 7.48697C16.3233 5.85438 15.7357 4.30862 14.6421 3.14496C14.4789 2.97128 14.2014 2.97128 14.0382 3.14496C13.875 3.31864 13.875 3.61389 14.0382 3.78758C14.9522 4.77755 15.4582 6.08016 15.4582 7.46961C15.4582 8.87642 14.9359 10.1964 14.0056 11.1864C13.8424 11.3601 13.8424 11.6553 14.0056 11.829C14.0872 11.9158 14.2014 11.9679 14.3157 11.9679C14.4136 11.9853 14.5279 11.9332 14.6095 11.8464ZM12.7162 9.83166C13.3201 9.20641 13.6465 8.37275 13.6465 7.46961C13.6465 6.6012 13.3364 5.76754 12.7488 5.14228C12.5856 4.9686 12.3081 4.95124 12.1449 5.14228C11.9817 5.31597 11.9654 5.61122 12.1449 5.7849C12.553 6.23647 12.7978 6.82699 12.7978 7.45224C12.7978 8.09486 12.553 8.70274 12.1286 9.15431C11.9654 9.32799 11.9491 9.62325 12.1286 9.79693C12.2102 9.88377 12.3245 9.93587 12.4387 9.93587C12.5203 9.97061 12.6346 9.9185 12.7162 9.83166Z" fill="#C4C4C4"/>
</svg>
